<?xml version="1.0" standalone="no"?>
<!DOCTYPE svg PUBLIC "-//W3C//DTD SVG 20010904//EN"
 "http://www.w3.org/TR/2001/REC-SVG-20010904/DTD/svg10.dtd">
<svg version="1.0" xmlns="http://www.w3.org/2000/svg"
 width="640.000000pt" height="359.000000pt" viewBox="0 0 640.000000 359.000000"
 preserveAspectRatio="xMidYMid meet">

<g transform="translate(0.000000,359.000000) scale(0.100000,-0.100000)"
fill="#000000" stroke="none">
<path d="M0 2725 c0 -586 3 -865 10 -865 6 0 75 6 153 14 78 8 185 17 237 21
52 3 154 12 225 20 72 8 203 17 290 20 88 3 203 8 257 11 l96 5 17 -58 c10
-32 44 -154 75 -271 32 -118 62 -218 68 -224 6 -6 28 -14 49 -18 l38 -6 -34
-18 c-26 -14 -42 -37 -78 -112 -55 -116 -56 -161 -6 -184 42 -20 42 -30 -2
-30 l-35 0 0 -64 c0 -59 -2 -64 -20 -59 -11 3 -20 9 -20 14 0 5 -21 9 -47 8
-52 -1 -44 -6 45 -29 29 -8 42 -16 42 -28 0 -10 7 -27 15 -38 19 -25 19 -34
-2 -35 -14 0 -15 -2 -3 -6 8 -3 28 -17 43 -29 22 -18 41 -24 80 -24 l51 0 -42
27 c-37 24 -40 29 -27 43 8 9 15 22 15 29 0 16 14 13 130 -24 47 -15 148 -46
225 -69 84 -24 140 -46 140 -54 0 -7 18 -23 40 -37 33 -20 36 -24 18 -25 -33
0 -18 -28 22 -39 47 -13 100 0 100 24 0 12 -8 21 -20 23 -11 2 -24 9 -30 14
-7 8 -4 9 10 4 11 -4 47 -14 80 -22 33 -9 85 -25 115 -36 30 -11 82 -26 115
-34 101 -23 229 -57 250 -65 24 -9 148 -42 223 -59 34 -8 57 -9 63 -3 17 17
-23 50 -74 63 -34 9 -51 20 -57 35 -6 16 -20 24 -50 29 -57 9 -87 25 -69 37 7
4 18 4 24 0 5 -4 44 -16 85 -26 150 -36 255 -71 255 -85 0 -8 27 -21 70 -33
39 -10 74 -23 79 -28 15 -14 -43 -11 -107 6 -80 21 -126 20 -123 -2 4 -22 62
-44 203 -77 110 -26 223 -34 223 -17 0 4 -19 12 -42 17 -51 11 -60 30 -19 39
17 4 33 10 36 15 6 9 98 0 105 -10 11 -16 116 -40 174 -40 84 0 249 19 259 29
4 4 40 6 80 4 40 -3 106 0 147 6 41 6 129 13 195 16 66 3 135 10 152 16 18 6
37 8 42 5 5 -3 74 -2 152 4 93 6 145 6 147 0 2 -6 13 -10 25 -11 47 -2 -57
-20 -318 -53 -666 -86 -2372 -266 -2585 -273 -235 -8 -270 0 -670 150 -184 68
-388 144 -452 168 -78 29 -120 50 -126 63 -10 24 -330 145 -385 145 -21 1
-105 26 -186 56 -82 30 -151 55 -155 55 -3 0 -6 -25 -6 -56 0 -42 4 -60 18
-70 16 -13 16 -13 -1 -14 -16 0 -17 -11 -15 -131 l3 -131 50 -18 c28 -10 88
-32 135 -50 47 -17 132 -44 190 -59 167 -45 323 -116 379 -175 l35 -36 2803 0
2803 0 0 1795 0 1795 -1536 0 -1535 0 -20 -46 c-12 -25 -34 -110 -50 -187 -29
-146 -67 -285 -94 -350 -19 -47 -38 -52 -190 -52 -110 0 -125 2 -185 29 -36
15 -96 37 -134 48 -66 19 -73 19 -180 4 -61 -9 -142 -16 -181 -16 -65 0 -184
24 -247 48 -69 28 -147 33 -234 17 -69 -13 -97 -14 -142 -5 -104 20 -166 47
-185 80 -13 21 -13 32 -2 75 22 83 43 122 87 165 53 51 72 56 161 40 40 -6 85
-10 102 -8 26 3 30 8 37 47 4 24 16 58 27 77 l20 34 -959 0 -960 0 0 -865z
m3980 454 c0 -11 -2 -19 -4 -19 -2 0 -13 -3 -23 -6 -16 -6 -16 -5 2 9 16 13
18 18 8 28 -18 18 -16 34 2 19 8 -7 15 -21 15 -31z m56 3 c-4 -11 -16 -22 -26
-25 -16 -4 -20 0 -20 21 0 19 3 23 9 13 12 -18 34 -3 26 18 -5 12 -3 13 5 5 7
-7 9 -21 6 -32z m60 27 c4 -8 9 -8 17 0 16 16 37 13 37 -4 0 -21 20 -19 21 3
0 11 2 12 6 4 4 -10 8 -10 19 -1 8 7 17 9 21 5 4 -3 -2 -12 -12 -20 -16 -12
-17 -16 -6 -30 11 -14 11 -16 -3 -16 -9 0 -16 8 -17 18 0 14 -2 14 -7 2 -10
-22 -58 -24 -66 -4 -6 15 -8 15 -19 2 -6 -8 -19 -18 -28 -21 -12 -4 -15 0 -12
21 3 15 6 33 8 40 5 15 31 16 41 1z m174 -9 c0 -11 -7 -20 -15 -20 -8 0 -15
-4 -15 -10 0 -5 5 -10 11 -10 5 0 8 -4 4 -10 -3 -5 -12 -7 -20 -3 -18 6 -20
44 -3 61 18 18 38 14 38 -8z m553 -241 c26 -12 47 -47 47 -80 0 -58 -62 -143
-111 -154 -23 -5 -32 -17 -53 -73 -14 -37 -46 -121 -70 -186 -25 -66 -53 -128
-63 -137 -15 -15 -48 -19 -223 -25 -169 -5 -207 -4 -216 7 -7 8 -17 72 -23
144 -7 71 -13 130 -14 130 -14 1 -43 26 -45 39 -6 28 16 44 71 51 97 12 96 10
26 81 -48 48 -60 67 -52 75 9 9 30 -5 88 -60 49 -45 85 -71 100 -71 13 0 105
11 206 25 101 14 188 25 192 25 4 0 3 9 -4 21 -32 60 42 184 118 199 1 0 13
-5 26 -11z m-3779 -578 c4 -5 -3 -7 -14 -4 -23 6 -26 13 -6 13 8 0 17 -4 20
-9z m769 -16 c-3 -13 -53 -20 -53 -7 0 15 13 23 35 20 11 -2 19 -7 18 -13z
m-43 -29 c0 -11 -19 -15 -25 -6 -3 5 1 10 9 10 9 0 16 -2 16 -4z m2775 -47 c4
-6 -9 -27 -29 -46 -26 -27 -36 -45 -36 -68 0 -39 -34 -85 -62 -85 -28 0 -58
28 -58 54 0 12 9 36 20 54 15 25 26 32 50 32 17 0 29 4 26 8 -3 5 -52 7 -108
4 -112 -5 -127 -13 -128 -64 0 -31 -44 -88 -68 -88 -26 0 -52 31 -52 62 0 19
10 40 28 58 27 26 27 29 10 34 -13 3 -18 11 -16 23 3 19 11 19 355 31 35 1 65
-3 68 -9z m-3142 -16 c-40 -2 -106 -2 -145 0 -40 1 -8 3 72 3 80 0 112 -2 73
-3z m1577 -58 c0 -66 -12 -120 -131 -600 -56 -229 -92 -393 -93 -429 l-1 -59
75 -19 c41 -11 82 -25 90 -33 14 -13 140 -46 790 -211 162 -41 304 -79 315
-84 54 -22 500 -138 870 -225 168 -39 185 -45 185 -59 0 -8 -16 -16 -37 -19
-28 -5 -41 -2 -54 12 -9 9 -52 25 -95 35 -44 10 -98 24 -120 32 -23 7 -66 16
-95 19 -30 4 -67 13 -84 20 -16 7 -64 20 -105 30 -41 9 -98 23 -125 31 -28 8
-73 19 -100 24 -70 13 -220 48 -279 66 -27 8 -74 17 -105 20 -31 4 -60 10 -66
14 -5 5 -39 14 -75 20 -36 7 -72 16 -81 20 -9 5 -45 14 -80 21 -35 6 -80 17
-99 24 -20 7 -58 16 -85 20 -28 4 -72 13 -100 21 -142 38 -206 48 -241 35 -22
-8 -53 -10 -85 -6 -32 5 -49 3 -49 -4 0 -6 -12 -8 -27 -5 -16 2 -41 0 -58 -5
-22 -7 -25 -10 -10 -11 11 0 34 -7 50 -16 l30 -14 -45 4 c-25 3 -39 3 -32 0
31 -14 6 -24 -55 -24 -44 -1 -63 -4 -53 -9 9 -5 47 -6 90 -1 76 9 165 -4 154
-21 -10 -17 -211 -11 -252 7 -20 10 -62 18 -92 19 -33 2 -47 0 -35 -5 13 -5
-5 -10 -57 -15 -92 -9 -98 -7 -87 24 9 21 13 23 54 18 36 -5 43 -4 39 8 -5 11
-17 13 -50 8 -40 -5 -44 -4 -44 16 0 11 4 21 9 21 5 0 12 11 15 25 4 14 11 23
16 20 5 -3 11 -1 14 4 3 4 20 11 37 15 40 8 33 29 -12 36 l-34 6 33 7 c21 4
36 15 44 31 13 31 -2 76 -73 216 -47 92 -50 96 -94 109 -25 7 -45 15 -43 16 2
2 30 6 63 8 109 10 230 29 242 39 6 5 17 41 24 81 7 40 17 81 23 92 5 11 9 30
7 42 -4 36 20 187 31 194 6 4 7 16 3 28 -4 13 -2 21 5 21 6 0 10 6 7 13 -2 7
-23 12 -53 13 -30 0 -134 26 -266 67 -119 36 -297 87 -395 113 -98 26 -182 52
-188 57 -6 6 -1 7 15 3 14 -3 51 -9 83 -12 49 -6 56 -4 51 9 -6 17 16 27 61
25 17 0 98 10 180 22 138 21 356 34 628 38 l107 2 0 -55z m-1540 -15 c-20 -13
-33 -13 -25 0 3 6 14 10 23 10 15 0 15 -2 2 -10z m37 -16 c-3 -3 -12 -4 -19
-1 -8 3 -5 6 6 6 11 1 17 -2 13 -5z m150 0 c-3 -3 -12 -4 -19 -1 -8 3 -5 6 6
6 11 1 17 -2 13 -5z m66 -1 c-7 -2 -21 -2 -30 0 -10 3 -4 5 12 5 17 0 24 -2
18 -5z m-357 -54 c57 -11 95 -29 63 -29 -30 0 -134 23 -143 31 -13 12 9 11 80
-2z m412 -11 c18 -18 14 -30 -7 -23 -11 3 -22 1 -26 -5 -3 -5 -27 -10 -53 -10
l-47 1 45 23 c53 27 72 30 88 14z m126 3 c3 -5 -5 -11 -19 -13 -17 -4 -25 -1
-25 8 0 15 36 19 44 5z m-339 -30 c31 -6 51 -6 53 0 6 14 22 11 22 -5 0 -10
27 -19 88 -30 153 -27 172 -29 172 -17 0 6 7 11 15 11 8 0 15 -7 15 -15 0 -8
5 -15 11 -15 7 0 8 16 3 45 -4 29 -3 45 4 45 15 0 25 -18 37 -65 7 -25 18 -41
29 -43 13 -3 17 1 13 15 -22 78 -18 84 37 63 22 -8 26 -16 28 -52 l1 -43 4 43
c2 23 9 42 16 42 7 0 -6 9 -28 19 -22 11 -37 20 -34 20 4 1 57 -10 119 -24
132 -30 477 -143 440 -144 -14 0 -47 6 -74 14 -62 19 -65 19 -59 -4 3 -13 -2
-20 -19 -24 -47 -13 -58 -9 -58 23 0 17 5 30 13 31 6 0 1 5 -12 10 -13 5 -26
7 -29 4 -3 -3 0 -5 6 -5 7 0 12 -15 12 -36 l0 -36 -87 7 c-49 3 -180 27 -293
52 -113 24 -270 58 -350 75 -196 41 -190 39 -190 49 0 5 10 7 23 4 12 -3 45
-9 72 -14z m-215 -7 c0 -2 -9 -4 -20 -4 -11 0 -20 4 -20 9 0 5 9 7 20 4 11 -3
20 -7 20 -9z m43 -11 c-7 -2 -19 -2 -25 0 -7 3 -2 5 12 5 14 0 19 -2 13 -5z
m44 -9 c-3 -3 -12 -4 -19 -1 -8 3 -5 6 6 6 11 1 17 -2 13 -5z m223 -44 c20 -6
21 -8 5 -8 -11 0 -31 4 -45 8 -20 6 -21 8 -5 8 11 0 31 -4 45 -8z m2360 3 c-1
-5 -7 -19 -15 -33 l-14 -25 4 30 c2 17 4 31 4 33 2 6 21 1 21 -5z m-2270 -23
c20 -6 21 -8 5 -8 -11 0 -31 4 -45 8 -20 6 -21 8 -5 8 11 0 31 -4 45 -8z
m2410 -6 c19 -3 45 -5 58 -4 12 0 22 -5 22 -10 0 -5 -6 -7 -13 -4 -8 3 -13 -4
-14 -18 -2 -18 0 -20 7 -8 6 9 10 10 10 3 0 -16 -21 -28 -29 -17 -3 5 -17 9
-31 10 -42 1 -154 15 -158 19 -6 6 8 25 19 25 6 0 7 -5 3 -12 -4 -7 -3 -8 5
-4 9 6 9 11 0 22 -10 12 -4 13 37 8 27 -3 65 -8 84 -10z m-2596 -20 c4 -10 -3
-14 -24 -14 -23 0 -30 5 -30 19 0 14 6 17 24 14 14 -3 27 -11 30 -19z m90 17
c7 -11 -41 -24 -54 -16 -6 4 -10 10 -10 16 0 12 57 12 64 0z m-218 -39 c-9 -8
-26 10 -26 26 1 15 2 15 15 -2 8 -11 13 -21 11 -24z m271 32 c-3 -3 -12 -4
-19 -1 -8 3 -5 6 6 6 11 1 17 -2 13 -5z m110 0 c-3 -3 -12 -4 -19 -1 -8 3 -5
6 6 6 11 1 17 -2 13 -5z m2541 -32 c5 -32 32 -28 32 5 0 20 3 24 11 16 6 -6
18 -9 25 -6 8 3 14 1 14 -3 0 -5 23 -9 50 -8 55 1 73 -12 46 -32 -13 -9 -14
-13 -4 -17 8 -4 7 -6 -4 -6 -11 -1 -20 9 -24 24 -7 27 -24 34 -24 10 0 -8 5
-15 10 -15 6 0 10 -4 10 -10 0 -20 -30 3 -31 24 0 11 -3 15 -6 8 -2 -6 -10 -9
-16 -5 -8 4 -7 1 1 -9 11 -14 7 -15 -35 -13 -27 2 -58 3 -71 4 -19 1 -22 5
-17 24 5 16 4 18 -4 7 -11 -17 -67 -25 -75 -11 -3 5 -3 17 0 26 5 13 17 16 58
12 43 -3 51 -7 54 -25z m-2947 -117 c7 -26 17 -45 25 -45 8 0 14 1 14 3 0 1
-7 27 -15 57 -18 68 -19 80 -1 80 8 0 22 -30 35 -75 13 -41 30 -80 39 -85 18
-11 20 -11 -81 6 -44 7 -50 17 -72 114 -11 49 -11 66 -2 72 13 8 38 -48 58
-127z m2966 113 c-3 -8 -6 -5 -6 6 -1 11 2 17 5 13 3 -3 4 -12 1 -19z m-2607
-45 c6 -32 14 -66 16 -75 4 -12 0 -18 -10 -18 -15 0 -18 9 -31 108 -8 63 12
51 25 -15z m33 44 c11 -30 19 -132 9 -122 -9 9 -32 100 -32 125 0 15 17 12 23
-3z m755 -12 c3 -3 -11 -5 -31 -5 -25 0 -37 4 -37 14 0 12 7 13 31 6 18 -5 34
-12 37 -15z m-833 3 c2 -7 6 -42 10 -77 5 -48 3 -62 -6 -59 -12 4 -38 91 -39
131 0 19 29 24 35 5z m-84 -50 c0 -29 2 -63 5 -75 2 -13 0 -23 -4 -23 -7 0
-42 121 -42 144 0 3 9 6 20 6 17 0 20 -7 21 -52z m289 32 c0 -11 -4 -20 -10
-20 -5 0 -10 9 -10 20 0 11 5 20 10 20 6 0 10 -9 10 -20z m54 -70 c4 -35 3
-48 -3 -35 -5 11 -11 45 -15 75 -4 35 -3 48 3 35 5 -11 11 -45 15 -75z m-394
38 c5 -24 14 -57 19 -75 8 -29 6 -32 -18 -39 -26 -7 -26 -7 9 -15 19 -4 52 -6
73 -3 21 2 37 0 37 -6 0 -18 20 -11 20 8 1 16 1 16 14 0 17 -23 26 -23 26 2 0
27 28 26 32 -2 5 -36 25 -32 22 4 -3 33 -3 32 7 -4 8 -26 17 -38 29 -38 15 0
17 7 14 43 l-4 42 13 -35 c16 -47 25 -60 43 -60 9 0 14 11 14 31 0 39 21 34
34 -8 4 -17 17 -34 27 -36 24 -6 24 16 4 128 -18 99 -18 105 -2 105 26 0 39
-19 52 -71 6 -30 15 -64 19 -76 6 -19 4 -23 -16 -24 -22 0 -23 0 -2 -9 13 -5
24 -21 27 -39 5 -23 12 -31 28 -31 24 0 24 -16 3 164 l-7 59 33 -7 c19 -3 35
-7 36 -9 2 -2 5 -39 8 -83 5 -85 14 -134 25 -134 8 0 7 8 -4 133 -7 73 -7 77
13 77 49 0 52 -6 52 -115 0 -59 4 -107 10 -110 11 -7 12 9 10 128 l-1 77 31 0
30 0 -1 -109 -1 -109 -41 -4 c-23 -2 -100 6 -172 19 -71 13 -229 40 -350 60
-121 20 -221 37 -223 39 -5 3 -42 146 -42 162 0 7 12 12 30 12 26 0 30 -4 40
-42z m257 5 c-3 -10 -5 -4 -5 12 0 17 2 24 5 18 2 -7 2 -21 0 -30z m252 -48
c-1 -35 -2 -37 -9 -15 -4 14 -8 39 -9 55 0 23 2 26 9 15 5 -8 9 -33 9 -55z
m1726 19 c187 -26 342 -49 345 -51 6 -6 -78 -335 -88 -345 -8 -8 -683 109
-695 121 -4 4 8 73 28 152 43 175 41 169 57 169 7 0 166 -21 353 -46z m-1876
-28 c14 -56 14 -56 -3 -56 -13 0 -26 41 -26 81 0 35 18 19 29 -25z m-92 2 c-3
-7 -5 -2 -5 12 0 14 2 19 5 13 2 -7 2 -19 0 -25z m728 -78 c-12 -67 -23 -100
-32 -100 -16 0 -16 30 1 123 10 59 30 96 45 81 2 -2 -4 -49 -14 -104z m71 93
c-3 -10 -12 -57 -22 -105 -14 -73 -20 -88 -35 -88 -23 0 -23 -6 -3 99 19 111
20 111 44 111 16 0 20 -5 16 -17z m44 0 c0 -10 -7 -56 -15 -103 -8 -47 -15
-86 -15 -87 0 -2 -9 -3 -20 -3 -16 0 -19 5 -16 23 9 41 36 179 36 183 0 2 7 4
15 4 8 0 15 -8 15 -17z m35 -65 c-7 -89 -18 -128 -36 -128 -12 0 -11 10 17
138 9 39 18 72 21 72 3 0 2 -37 -2 -82z m-1042 35 c4 -19 2 -33 -3 -33 -6 0
-10 17 -10 37 0 43 5 41 13 -4z m727 25 c0 -25 -23 -143 -29 -150 -3 -4 -12
-4 -19 1 -9 6 -11 26 -5 82 l8 74 6 -60 6 -60 1 56 c1 31 5 59 9 62 10 11 23
8 23 -5z m46 -70 l-5 -83 11 83 c11 82 11 82 40 82 l30 0 -7 -77 c-10 -128
-12 -133 -47 -133 -24 0 -28 3 -19 13 6 8 8 17 4 20 -12 13 -23 7 -23 -13 0
-15 -7 -20 -25 -20 -31 0 -33 18 -2 30 17 7 18 9 5 9 -21 1 -21 8 -8 87 14 78
17 84 35 84 13 0 15 -13 11 -82z m2208 -33 c219 -30 401 -57 404 -59 4 -5 -78
-351 -88 -366 -5 -7 -849 126 -859 136 -3 3 69 298 84 342 3 9 14 12 32 8 16
-3 208 -30 427 -61z m-3226 -30 c16 -61 15 -67 -10 -63 -13 2 -24 13 -28 28
-22 82 -22 80 3 80 19 0 25 -8 35 -45z m56 8 c4 -16 9 -36 12 -45 4 -13 0 -18
-14 -18 -13 0 -22 9 -26 28 -4 15 -9 35 -12 45 -4 12 0 17 14 17 13 0 22 -9
26 -27z m141 -109 c12 -84 11 -85 -9 -82 -16 2 -25 16 -38 63 -23 85 -23 103
5 107 12 2 24 2 26 1 3 -2 10 -42 16 -89z m80 74 c34 -156 34 -147 13 -154
-11 -3 -24 -2 -28 3 -8 8 -30 124 -30 156 0 26 39 21 45 -5z m85 5 c3 -3 5
-37 5 -76 0 -65 -2 -72 -19 -72 -20 0 -32 31 -50 129 l-7 36 33 -7 c18 -3 35
-8 38 -10z m114 -65 c4 -29 7 -57 8 -63 1 -5 -6 -11 -15 -13 -15 -3 -17 6 -17
62 0 79 15 87 24 14z m70 23 c3 -9 8 -33 12 -53 5 -34 4 -38 -14 -38 -16 0
-22 9 -27 43 -3 23 -9 50 -11 59 -4 12 0 15 15 11 11 -3 22 -13 25 -22z m396
14 c0 -8 -4 -15 -10 -15 -5 0 -10 7 -10 15 0 8 5 15 10 15 6 0 10 -7 10 -15z
m-302 -17 c21 -21 15 -65 -10 -71 -27 -8 -25 -10 -36 41 -9 39 -9 42 12 42 12
0 27 -5 34 -12z m-543 -84 c19 -63 23 -69 48 -69 14 -1 29 -4 33 -8 4 -4 -7
-7 -24 -7 -17 0 -34 -5 -38 -11 -5 -8 1 -10 19 -7 20 4 28 0 36 -19 15 -33 15
-33 -23 -33 l-34 0 -35 107 c-20 59 -33 111 -30 116 12 19 28 -4 48 -69z m651
68 c6 -4 15 -44 20 -90 8 -68 7 -81 -4 -77 -8 3 -23 5 -35 5 -17 0 -22 6 -23
28 0 15 -4 53 -8 85 -8 56 -8 57 15 57 13 0 29 -4 35 -8z m414 -1 c0 -15 -28
-144 -35 -163 -7 -18 -35 -25 -35 -9 0 9 29 148 35 169 5 14 35 17 35 3z m46
-8 c-3 -10 -10 -46 -17 -80 -12 -63 -32 -104 -44 -91 -6 5 16 130 30 176 7 20
37 15 31 -5z m54 -1 c0 -33 -23 -137 -33 -149 -10 -14 -47 -18 -46 -5 0 4 4
16 9 27 l9 20 1 -20 c1 -34 17 3 24 60 9 65 15 85 27 85 5 0 9 -8 9 -18z
m-1201 -109 l38 -113 -28 0 c-35 0 -42 12 -68 119 -26 105 -26 113 -1 109 16
-2 28 -26 59 -115z m761 37 c6 -82 15 -77 25 13 5 47 10 57 26 57 17 0 19 -8
19 -74 0 -56 -4 -75 -15 -80 -8 -3 -15 -12 -15 -21 0 -9 -9 -15 -24 -15 -26 0
-41 28 -51 95 -3 22 -8 55 -11 73 -5 30 -3 33 18 30 21 -3 23 -9 28 -78z m168
13 c-3 -38 -11 -80 -18 -95 -16 -35 -49 -38 -46 -5 2 12 6 51 11 87 9 77 10
80 37 80 19 0 20 -4 16 -67z m72 47 c0 -36 -22 -125 -36 -147 -8 -13 -20 -23
-27 -23 -15 0 -20 37 -6 45 5 4 9 23 9 44 0 73 10 101 36 101 17 0 24 -6 24
-20z m50 8 c-1 -7 -7 -40 -14 -73 -14 -66 -31 -105 -46 -105 -15 0 -11 32 5
54 8 11 15 39 15 62 0 23 3 49 6 58 7 19 34 22 34 4z m-181 -15 c-1 -10 -5
-31 -9 -48 -7 -27 -8 -25 -9 18 0 26 4 47 9 47 6 0 9 -8 9 -17z m-255 -80 c7
-51 -1 -67 -30 -61 -26 5 -44 85 -23 99 32 20 46 10 53 -38z m-89 -48 c0 -16
7 -35 15 -42 13 -10 10 -12 -17 -13 -26 0 -36 6 -48 30 -24 47 -20 62 18 58
28 -3 32 -6 32 -33z m-171 9 c3 -9 6 -27 6 -40 0 -43 -61 -24 -73 23 -4 18 0
23 22 26 14 2 29 5 32 6 4 0 10 -6 13 -15z m94 -16 c3 -26 1 -28 -31 -28 -34
0 -47 12 -47 46 0 11 10 14 38 12 32 -3 37 -7 40 -30z m392 -17 c-6 -12 -15
-21 -21 -21 -6 0 -3 7 5 16 9 8 17 25 17 37 1 16 2 18 6 5 2 -9 -1 -26 -7 -37z
m-568 4 c5 -22 2 -25 -24 -25 -21 0 -31 6 -37 23 -7 19 -5 23 18 28 33 7 38 5
43 -26z m-82 -4 c15 -29 13 -33 -22 -29 -25 2 -34 8 -36 26 -3 18 1 22 22 22
15 0 30 -8 36 -19z m525 -11 c4 -6 -7 -10 -25 -10 -18 0 -29 4 -25 10 3 6 15
10 25 10 10 0 22 -4 25 -10z m-80 -10 c-3 -5 -19 -10 -36 -10 -16 0 -29 5 -29
10 0 6 16 10 36 10 21 0 33 -4 29 -10z m-187 -7 c-10 -2 -28 -2 -40 0 -13 2
-5 4 17 4 22 1 32 -1 23 -4z m-163 -23 c-7 -12 -65 -14 -65 -2 0 4 16 9 36 10
23 2 33 -1 29 -8z m75 0 c11 -7 6 -10 -20 -10 -26 0 -31 3 -20 10 8 5 17 10
20 10 3 0 12 -5 20 -10z m84 -5 c-4 -8 -12 -15 -20 -15 -20 0 -17 18 4 23 9 3
18 5 19 6 1 0 0 -6 -3 -14z m76 0 c-7 -8 -16 -15 -21 -15 -5 0 -9 7 -9 15 0 9
9 15 21 15 18 0 19 -2 9 -15z m-327 -2 c-13 -2 -35 -2 -50 0 -16 2 -5 4 22 4
28 0 40 -2 28 -4z m405 -5 c9 -9 12 -9 12 0 0 24 262 5 306 -23 26 -17 137
-257 128 -279 -3 -9 -16 -16 -28 -16 -26 0 -249 29 -251 32 -1 2 -23 56 -49
120 -56 136 -71 153 -133 157 -7 1 -13 6 -13 11 0 14 13 13 28 -2z m-488 -2
c0 -2 -11 -6 -25 -8 -14 -3 -25 -1 -25 3 0 5 11 9 25 9 14 0 25 -2 25 -4z
m136 -18 c36 2 76 1 89 -2 l24 -6 -23 -25 c-12 -13 -31 -43 -41 -66 -19 -41
-19 -42 0 -56 19 -13 20 -12 26 20 3 19 19 55 35 81 l29 47 107 -3 c79 -2 111
-7 122 -18 8 -8 36 -64 61 -123 l45 -109 -88 6 -87 6 55 -14 c30 -7 72 -17 93
-20 20 -4 37 -11 37 -17 0 -6 -59 -8 -157 -7 -126 2 -157 6 -155 16 4 22 -21
82 -35 82 -7 0 -13 -5 -13 -11 0 -7 -14 -8 -40 -4 l-40 7 0 -50 0 -49 128 -7
c70 -4 162 -11 205 -17 59 -8 82 -7 93 2 11 9 14 8 14 -5 0 -26 -39 -34 -125
-25 -44 5 -159 15 -255 24 -174 15 -380 42 -406 52 -29 11 -26 50 11 134 20
46 44 92 54 102 9 9 48 24 86 32 38 8 72 20 74 27 2 7 6 9 8 3 2 -6 31 -9 69
-7z m582 -304 c25 -7 30 -24 6 -24 -11 0 -15 -6 -11 -20 4 -17 0 -20 -25 -20
-23 0 -29 4 -24 16 3 9 6 24 6 35 0 20 10 23 48 13z m-643 -49 c72 -8 150 -15
173 -15 31 0 42 -4 39 -12 -7 -22 32 -68 59 -68 17 0 24 -6 24 -19 0 -30 -61
-32 -174 -4 -54 13 -100 22 -102 20 -3 -3 7 -7 21 -11 14 -4 25 -11 25 -16 0
-6 17 -10 38 -10 20 0 55 -5 77 -11 67 -17 73 -21 40 -29 -27 -7 -25 -8 15 -9
45 -1 45 -1 56 -46 6 -25 8 -45 5 -45 -20 0 -256 72 -260 79 -3 4 -31 10 -61
14 -59 5 -140 35 -140 51 0 5 6 17 14 25 19 21 25 103 8 109 -6 2 -12 8 -12
13 0 4 6 6 13 4 6 -3 71 -11 142 -20z m800 15 c3 -5 -1 -10 -10 -10 -9 0 -13
5 -10 10 3 6 8 10 10 10 2 0 7 -4 10 -10z m-82 -17 c-7 -2 -19 -2 -25 0 -7 3
-2 5 12 5 14 0 19 -2 13 -5z m-83 -105 c0 -36 -4 -48 -15 -48 -21 0 -19 -20 3
-20 9 0 25 -7 35 -14 16 -12 16 -14 1 -20 -24 -9 -214 -7 -214 2 0 5 7 23 16
41 14 27 20 32 41 26 16 -4 22 -2 18 5 -3 5 -13 10 -22 10 -11 0 -14 6 -10 22
4 12 2 27 -3 33 -7 8 13 11 70 11 l80 0 0 -48z m-283 36 c-3 -3 -12 -4 -19 -1
-8 3 -5 6 6 6 11 1 17 -2 13 -5z m70 -10 c-3 -3 -12 -4 -19 -1 -8 3 -5 6 6 6
11 1 17 -2 13 -5z m1053 -18 c32 -11 38 -15 20 -15 -34 -1 -70 9 -70 20 0 11
-4 11 50 -5z m-120 -6 c20 0 22 -2 10 -10 -23 -15 -56 -12 -71 7 -13 15 -11
16 11 10 14 -4 36 -7 50 -7z m296 -47 c-7 -7 -76 8 -76 17 0 4 18 3 40 -2 23
-6 39 -13 36 -15z m-306 -9 l35 -14 -45 6 c-25 4 -52 10 -60 15 -26 14 31 9
70 -7z m-665 -12 c-3 -3 -11 0 -18 7 -9 10 -8 11 6 5 10 -3 15 -9 12 -12z
m1092 -8 c-3 -3 -12 -4 -19 -1 -8 3 -5 6 6 6 11 1 17 -2 13 -5z m-717 -18 l35
-13 -40 -6 c-65 -11 -193 -8 -243 6 l-47 12 70 6 c119 9 189 8 225 -5z m425 4
l20 -9 -20 0 c-11 0 -27 4 -35 9 -13 9 -13 10 0 9 8 0 24 -4 35 -9z m-215 -37
l35 -13 -35 6 c-19 4 -48 12 -65 20 l-30 13 30 -6 c17 -3 46 -12 65 -20z m168
12 c3 -3 -16 -5 -42 -5 -28 0 -45 4 -41 10 6 9 73 6 83 -5z m99 9 c-3 -3 -12
-4 -19 -1 -8 3 -5 6 6 6 11 1 17 -2 13 -5z m-894 -35 c4 -15 2 -19 -8 -15 -7
2 -30 8 -49 12 -55 10 -53 24 2 24 42 0 51 -3 55 -21z m232 -4 c6 -2 -13 -4
-42 -4 -41 -1 -51 2 -47 13 5 13 38 10 89 -9z m315 12 l32 -14 -63 -6 c-93
-10 -170 -8 -204 7 -28 12 -25 12 45 14 40 1 76 4 78 7 10 10 81 5 112 -8z
m-609 -28 c116 -34 128 -41 108 -62 -27 -26 -98 -29 -184 -6 -44 11 -81 22
-82 23 -6 6 33 75 43 76 6 0 58 -14 115 -31z m819 1 c20 -6 21 -8 5 -8 -11 0
-29 3 -40 8 -25 11 1 11 35 0z m-72 -12 l47 -13 -50 -6 c-77 -11 -115 -10
-115 2 0 6 6 9 14 6 8 -3 20 1 26 9 15 17 19 17 78 2z m-300 -10 l47 -12 -40
-8 c-22 -4 -78 -6 -125 -6 l-85 1 73 10 c39 5 72 14 72 18 0 11 2 11 58 -3z
m135 5 c9 -2 15 -8 12 -12 -4 -8 -93 4 -103 14 -6 6 67 5 91 -2z m44 -54 c29
-7 50 -16 47 -21 -9 -14 -255 -8 -294 8 -21 9 -25 12 -10 9 79 -17 111 -17
128 -3 9 9 24 18 32 21 16 6 18 5 97 -14z m92 1 c23 -6 41 -13 39 -15 -5 -6
-108 22 -117 31 -3 3 3 4 14 1 11 -3 40 -11 64 -17z m191 10 c11 -7 -2 -10
-43 -10 -36 0 -56 4 -52 10 8 13 75 13 95 0z m255 -32 c13 -5 9 -6 -15 -2 -19
4 -42 10 -50 15 -18 11 34 1 65 -13z m-775 -24 l35 -14 -40 6 c-22 3 -47 10
-55 15 -25 14 20 10 60 -7z m490 2 c31 -10 37 -15 20 -15 -27 1 -104 27 -80
28 8 0 35 -6 60 -13z m-67 -11 c69 -13 49 -25 -42 -25 -54 0 -91 4 -91 10 0 6
-7 10 -16 10 -8 0 -13 4 -10 9 6 10 100 7 159 -4z m487 1 c25 -8 36 -15 25
-15 -11 0 -33 6 -50 14 -39 18 -31 18 25 1z m-675 -22 l40 -14 -35 4 c-19 2
-51 11 -70 20 -33 14 -34 15 -5 9 17 -3 48 -12 70 -19z m435 -18 c25 -8 36
-15 25 -15 -25 1 -106 27 -85 28 8 0 35 -6 60 -13z m-220 -42 c21 -7 27 -13
15 -13 -11 1 -42 9 -70 20 -40 15 -43 18 -15 13 19 -4 50 -12 70 -20z m351 -2
c-7 -2 -18 1 -23 6 -8 8 -4 9 13 5 13 -4 18 -8 10 -11z m-117 -62 l31 -21 -30
7 c-16 4 -52 16 -80 26 l-50 18 49 -5 c27 -3 63 -14 80 -25z"/>
<path d="M4066 3203 c-9 -9 -7 -33 3 -33 12 0 22 28 12 34 -5 3 -11 3 -15 -1z"/>
<path d="M4120 3190 c0 -11 5 -20 10 -20 6 0 10 9 10 20 0 11 -4 20 -10 20 -5
0 -10 -9 -10 -20z"/>
<path d="M4588 2663 c-10 -2 -18 -10 -18 -16 0 -7 -3 -22 -6 -34 -6 -20 -3
-23 25 -23 26 0 33 6 46 36 8 20 15 38 15 40 0 5 -40 3 -62 -3z"/>
<path d="M4468 2643 c-26 -7 -25 -63 1 -63 11 0 27 7 35 16 9 8 16 24 16 35 0
19 -14 22 -52 12z"/>
<path d="M4337 2623 c-4 -3 -7 -15 -7 -25 0 -13 8 -18 30 -18 25 0 30 4 30 25
0 20 -5 25 -23 25 -13 0 -27 -3 -30 -7z"/>
<path d="M4194 2599 c-3 -6 -2 -15 4 -21 15 -15 56 -5 60 15 3 13 -3 17 -27
17 -16 0 -33 -5 -37 -11z"/>
<path d="M4550 2531 c0 -5 -3 -17 -6 -26 -6 -13 -1 -16 21 -13 18 2 31 11 36
26 7 20 5 22 -21 22 -17 0 -30 -4 -30 -9z"/>
<path d="M4320 2510 c0 -16 7 -20 30 -20 23 0 30 4 30 20 0 16 -7 20 -30 20
-23 0 -30 -4 -30 -20z"/>
<path d="M4440 2510 c0 -25 45 -28 54 -4 9 23 8 24 -24 24 -23 0 -30 -4 -30
-20z"/>
<path d="M4200 2500 c0 -16 7 -20 30 -20 23 0 30 4 30 20 0 16 -7 20 -30 20
-23 0 -30 -4 -30 -20z"/>
<path d="M4437 2433 c-4 -3 -7 -17 -7 -30 0 -20 5 -24 23 -21 30 4 39 58 9 58
-10 0 -22 -3 -25 -7z"/>
<path d="M4530 2431 c0 -5 -3 -16 -6 -25 -4 -12 0 -16 15 -16 12 0 21 4 21 9
0 5 3 16 6 25 4 12 0 16 -15 16 -12 0 -21 -4 -21 -9z"/>
<path d="M4208 2424 c-14 -13 6 -44 28 -44 19 0 24 5 24 25 0 20 -5 25 -23 25
-13 0 -26 -3 -29 -6z"/>
<path d="M4320 2405 c0 -20 5 -25 25 -25 20 0 25 5 25 25 0 20 -5 25 -25 25
-20 0 -25 -5 -25 -25z"/>
<path d="M4150 2159 c0 -5 5 -7 10 -4 6 3 10 8 10 11 0 2 -4 4 -10 4 -5 0 -10
-5 -10 -11z"/>
<path d="M4415 2160 c-3 -5 -1 -10 4 -10 6 0 11 5 11 10 0 6 -2 10 -4 10 -3 0
-8 -4 -11 -10z"/>
<path d="M2960 970 c8 -5 22 -10 30 -10 13 0 13 1 0 10 -8 5 -22 10 -30 10
-13 0 -13 -1 0 -10z"/>
<path d="M2880 961 c0 -11 26 -22 34 -14 12 12 5 23 -14 23 -11 0 -20 -4 -20
-9z"/>
<path d="M2608 943 c7 -3 16 -2 19 1 4 3 -2 6 -13 5 -11 0 -14 -3 -6 -6z"/>
<path d="M2735 910 c-4 -6 5 -10 19 -10 14 0 26 5 26 10 0 6 -9 10 -19 10 -11
0 -23 -4 -26 -10z"/>
<path d="M2143 2048 c9 -7 18 -31 20 -53 l4 -40 1 43 c1 25 7 42 15 43 15 1
-23 17 -42 18 -12 1 -11 -2 2 -11z"/>
<path d="M2250 2010 c6 -11 9 -24 7 -28 -3 -4 -1 -16 4 -27 6 -16 8 -12 8 18
1 22 6 37 14 38 6 0 3 4 -8 9 -31 14 -36 11 -25 -10z"/>
<path d="M4070 1974 c0 -8 5 -12 10 -9 6 3 10 10 10 16 0 5 -4 9 -10 9 -5 0
-10 -7 -10 -16z"/>
<path d="M4225 1959 c-11 -17 1 -21 15 -4 8 9 8 15 2 15 -6 0 -14 -5 -17 -11z"/>
<path d="M4266 1955 c4 -8 8 -15 10 -15 2 0 4 7 4 15 0 8 -4 15 -10 15 -5 0
-7 -7 -4 -15z"/>
<path d="M4371 1954 c-1 -6 6 -17 14 -24 13 -10 15 -9 15 11 0 17 -3 20 -9 10
-7 -11 -9 -11 -14 0 -3 8 -6 9 -6 3z"/>
<path d="M3605 1780 c-3 -6 1 -7 9 -4 18 7 21 14 7 14 -6 0 -13 -4 -16 -10z"/>
<path d="M3693 1755 c-3 -9 -3 -18 -1 -21 3 -3 8 4 11 16 6 23 -1 27 -10 5z"/>
<path d="M3780 1756 c0 -2 7 -6 15 -10 8 -3 15 -1 15 4 0 6 -7 10 -15 10 -8 0
-15 -2 -15 -4z"/>
<path d="M3824 1749 c-4 -8 -3 -9 4 -5 16 10 15 -16 0 -34 -11 -12 -10 -12 5
-1 19 15 22 36 8 46 -5 3 -13 0 -17 -6z"/>
<path d="M3860 1739 c0 -5 5 -7 10 -4 6 3 10 8 10 11 0 2 -4 4 -10 4 -5 0 -10
-5 -10 -11z"/>
<path d="M3906 1718 c19 -21 19 -21 -1 -14 -15 5 -17 4 -8 -5 18 -18 35 -2 20
21 -6 11 -16 20 -21 20 -5 0 -1 -10 10 -22z"/>
<path d="M4378 1663 c6 -2 12 -9 12 -15 0 -6 -7 -8 -15 -4 -9 3 -15 0 -15 -10
0 -12 4 -12 20 -4 25 13 26 40 3 39 -11 0 -13 -3 -5 -6z"/>
<path d="M4412 1633 c3 -30 28 -45 28 -16 0 15 -2 16 -11 3 -8 -12 -10 -9 -6
13 2 15 0 27 -5 27 -5 0 -8 -12 -6 -27z"/>
<path d="M4466 1648 c-3 -7 -7 -26 -11 -42 -5 -25 -4 -28 8 -17 8 6 13 21 10
31 -3 11 0 20 6 20 6 0 11 5 11 10 0 14 -20 12 -24 -2z"/>
<path d="M4520 1640 c13 -9 7 -14 -12 -11 -12 2 -10 -27 2 -34 6 -4 9 -1 8 6
-2 6 3 14 11 17 10 3 13 -2 9 -22 -6 -30 -3 -32 18 -11 10 9 11 15 4 15 -7 0
-9 9 -5 23 4 15 3 18 -3 9 -7 -11 -10 -11 -15 2 -4 9 -12 16 -19 16 -9 0 -8
-3 2 -10z"/>
<path d="M4594 1628 c-4 -7 -3 -8 4 -4 7 4 12 3 12 -2 0 -6 -7 -13 -16 -16
-18 -7 -10 -26 12 -26 9 0 14 11 14 30 0 30 -13 40 -26 18z"/>
<path d="M4637 1603 c-7 -39 -1 -40 11 -4 6 17 7 31 3 31 -5 0 -11 -12 -14
-27z"/>
<path d="M4675 1619 c-4 -6 -4 -13 -1 -16 3 -4 6 -1 6 6 0 7 5 9 10 6 6 -3 10
-1 10 4 0 14 -17 14 -25 0z"/>
<path d="M4761 1593 c0 -12 -4 -30 -7 -40 -5 -17 -5 -17 6 0 6 10 9 28 7 40
-4 22 -4 22 -6 0z"/>
<path d="M4690 1589 c0 -6 -7 -9 -15 -5 -9 3 -15 0 -15 -10 0 -12 4 -12 20 -4
18 10 28 30 15 30 -3 0 -5 -5 -5 -11z"/>
<path d="M4713 1585 c-3 -9 -3 -18 0 -21 9 -9 27 6 27 22 0 19 -19 18 -27 -1z"/>
<path d="M2238 1453 c7 -3 16 -2 19 1 4 3 -2 6 -13 5 -11 0 -14 -3 -6 -6z"/>
<path d="M1588 873 c12 -2 32 -2 45 0 12 2 2 4 -23 4 -25 0 -35 -2 -22 -4z"/>
<path d="M1738 823 c18 -2 45 -2 60 0 15 2 0 4 -33 4 -33 0 -45 -2 -27 -4z"/>
<path d="M2218 858 c6 -6 18 -8 28 -6 14 3 12 5 -9 10 -19 3 -25 2 -19 -4z"/>
<path d="M2445 3554 c26 -19 59 -36 73 -37 23 -2 27 3 33 36 l6 37 -79 0 -80
0 47 -36z"/>
<path d="M1058 773 c6 -2 18 -2 25 0 6 3 1 5 -13 5 -14 0 -19 -2 -12 -5z"/>
<path d="M898 763 c6 -2 18 -2 25 0 6 3 1 5 -13 5 -14 0 -19 -2 -12 -5z"/>
<path d="M758 753 c7 -3 16 -2 19 1 4 3 -2 6 -13 5 -11 0 -14 -3 -6 -6z"/>
</g>
</svg>
